<svg xmlns="http://www.w3.org/2000/svg" width="44" height="44" fill="none"><path stroke="#8F8FA3" stroke-width="1.6" d="M1.08 21.4 1 21.3a42.62 42.62 0 0 1 5.97-6.34C10.9 11.54 16.22 8.23 22 8.23c5.78 0 11.1 3.31 15.03 6.73A45.72 45.72 0 0 1 43 21.3l-.08.1a45.72 45.72 0 0 1-5.89 6.22c-3.93 3.43-9.25 6.74-15.03 6.74-5.78 0-11.1-3.3-15.03-6.73a45.72 45.72 0 0 1-5.89-6.22Z"/><path stroke="#8F8FA3" stroke-width="1.6" d="M22 0v9A13 13 0 0 1 9 22M22 44v-9a13 13 0 0 1 13-13M22 0v9a13 13 0 0 0 13 13M22 44v-9A13 13 0 0 0 9 22"/></svg>