<svg xmlns="http://www.w3.org/2000/svg" width="63" height="112" fill="none"><g clip-path="url(#a)"><path fill="#F4F3F7" d="M31.44 0C22.87 0 15.02 6.16 9.28 16.3 3.56 26.44 0 40.47 0 56c0 15.53 3.56 29.56 9.28 39.7 5.74 10.14 13.59 16.3 22.16 16.3s16.42-6.16 22.15-16.3c5.73-10.14 9.29-24.17 9.29-39.7 0-15.53-3.56-29.56-9.29-39.7C47.86 6.16 40.01 0 31.44 0Z"/><path fill="#ED1354" d="M40.42 84.63a9.68 9.68 0 0 0-3.38-3.36 14.76 14.76 0 0 0-4.67-1.74 26.7 26.7 0 0 0-5.18-.5h-2.37V65.8H35c1.16 0 2.03.3 2.59.9.56.62.84 1.34.84 2.14v.21h1V63.3H18.44v.99h.5c.24 0 .45.08.64.25.2.2.39.43.54.71a4.21 4.21 0 0 1 .5 1.75v30.04a4.21 4.21 0 0 1-.5 1.8c-.16.29-.34.52-.54.71a.91.91 0 0 1-.65.26h-.5v.98h10.44c1.85 0 3.58-.25 5.14-.74 1.57-.49 2.95-1.21 4.09-2.14a9.73 9.73 0 0 0 2.67-3.41c.63-1.33.94-2.86.94-4.53 0-2.13-.43-3.92-1.29-5.34Zm-15.6-3.27h1.64c3.54 0 6.3.86 8.2 2.56a8.4 8.4 0 0 1 2.86 6.55c0 1.13-.2 2.19-.62 3.15a6.63 6.63 0 0 1-1.94 2.5c-.88.7-2 1.27-3.34 1.67-1.35.4-2.97.61-4.82.61h-1.98V81.37Z"/><path fill="#ED1354" d="M44.44 68.08h.5c1.56 0 2.35-.72 2.35-2.16 0-.53-.1-1.08-.3-1.67l-8.84-23.88H20.96l-8.55 23.48c-.2.53-.3 1.02-.3 1.48 0 .85.24 1.52.7 2.01.45.5.94.74 1.47.74h.5v.98H3.86v-.98h.49c.85 0 1.68-.5 2.5-1.52a13.1 13.1 0 0 0 2.02-3.59l22.5-59.93 22 59.34c.46 1.31 1.1 2.59 1.92 3.83.82 1.25 1.88 1.87 3.19 1.87h.5v.98H44.43v-.98Zm-22.5-31.05h15.13L29.51 16.5l-7.57 20.53ZM43.33 101.04a1.38 1.38 0 1 0 0-2.76 1.38 1.38 0 0 0 0 2.76Z"/><path fill="#ED1354" d="M31.44.89c8.02 0 15.61 5.63 21.39 15.85 5.9 10.46 9.16 24.4 9.16 39.26 0 14.85-3.25 28.8-9.16 39.26-5.78 10.22-13.37 15.85-21.4 15.85-8 0-15.6-5.63-21.38-15.85C4.15 84.8.88 70.85.88 56c0-14.85 3.26-28.8 9.17-39.26C15.83 6.52 23.42.9 31.44.9Zm0-.89C22.87 0 15.02 6.16 9.28 16.3 3.56 26.44 0 40.47 0 56c0 15.53 3.56 29.56 9.28 39.7 5.74 10.14 13.59 16.3 22.16 16.3s16.42-6.16 22.15-16.3c5.73-10.14 9.29-24.17 9.29-39.7 0-15.53-3.56-29.56-9.29-39.7C47.86 6.16 40.01 0 31.44 0Z"/></g><defs><clipPath id="a"><path fill="#fff" d="M0 0h62.88v112H0z"/></clipPath></defs></svg>