<svg xmlns="http://www.w3.org/2000/svg" width="275" height="199" fill="none"><path stroke="#ED1354" stroke-width="1.6" d="m264.71 1.3.68-.3 8.4 11.87-.04.02c-.6.28-1.5.7-2.63 1.25a217.07 217.07 0 0 0-9.54 4.99c-8 4.42-18.93 11.04-30.64 19.83-23.41 17.55-50.01 43.81-62.54 78.54l-.67 1.86 1.77-.87c6.09-2.97 12.19-3.98 19.37-3.98 12.79 0 23.47 4.26 30.96 11.58 7.48 7.32 11.82 17.77 11.82 30.27s-4.34 22.94-11.82 30.26c-7.49 7.33-18.17 11.58-30.96 11.58-14.86 0-25.51-5-32.47-13.3-6.97-8.3-10.31-20.02-10.32-33.6 3.1-50.44 33.02-88.07 62.25-113.13a268.66 268.66 0 0 1 39.8-28.12 235.23 235.23 0 0 1 16.58-8.74Zm-145.28 0 .67-.3 8.4 11.87-.03.02c-.6.28-1.5.7-2.63 1.25a217.07 217.07 0 0 0-9.55 4.99c-8 4.42-18.93 11.04-30.64 19.83-23.4 17.55-50 43.81-62.53 78.54l-.67 1.86 1.77-.87c6.09-2.97 12.18-3.98 19.36-3.98 12.8 0 23.48 4.26 30.97 11.58 7.48 7.32 11.82 17.77 11.82 30.27s-4.34 22.94-11.82 30.26c-7.49 7.33-18.17 11.58-30.97 11.58-14.85 0-25.5-5-32.46-13.3C4.15 176.6.8 164.89.8 151.3c3.1-50.44 33.01-88.07 62.24-113.13a268.63 268.63 0 0 1 39.8-28.12 235.23 235.23 0 0 1 16.6-8.74Z"/></svg>